<svg width="80" height="80" viewBox="0 0 80 80" fill="none" xmlns="http://www.w3.org/2000/svg">
<path d="M3.24707 68.6749C3.49395 67.4999 14.4377 54.003 14.4377 54.003L22.1158 41.5718L29.8002 13.2468L50.2564 10.6655L56.2471 30.5874L65.1814 50.9936L78.7033 70.1249L3.2502 68.6749H3.24707Z" fill="#8D5C49"/>
<path d="M27.2998 17.5938L27.9592 20.0188V23.8688L32.0561 17.2563L31.1529 36.5563L35.4779 27.5907L38.9561 29.2438L41.2467 14.5532L45.8561 17.3438L49.2842 31.6782L51.0686 28.6095L52.3092 20.2438L53.7248 22.2657L53.9748 18.7376L51.6279 13.9532L48.9873 7.64697L40.6373 8.77197L32.3748 6.99072L27.2998 17.5938Z" fill="#42210B"/>
<path d="M0 70.1188L17.25 61.572L34.375 64.9751L54.1187 59.7876L72.7781 66.4032L80 70.9438L69.325 71.2032L54.7188 73.0095L14.0156 70.5938L0 70.1188Z" fill="#8C9B2A"/>
<path d="M31.525 39.6719L28.5687 46.1219C28.5687 46.1219 17.6093 60.2063 18.075 59.7906C18.5406 59.375 30.7875 45.2438 30.7875 45.2438L31.5281 39.6719H31.525Z" fill="#B28B47"/>
<path d="M51.7373 29.2437L53.9748 39.9718C53.9748 39.9718 66.8592 61.1155 66.1561 60.4843C65.4529 59.853 52.8561 41.3499 52.8561 41.3499L51.7373 29.2437Z" fill="#B28B47"/>
<path d="M37.6658 35.2219L35.0564 47.7563L28.3877 61.4657L36.0408 48.8594L37.6658 35.2219Z" fill="#B28B47"/>
<path d="M42.0283 26.8875L44.4221 42.2187L50.5377 58.9843L43.5189 43.5656L42.0283 26.8875Z" fill="#B28B47"/>
</svg>
