<svg width="547" height="347" viewBox="0 0 547 347" fill="none" xmlns="http://www.w3.org/2000/svg">
<path d="M96.7894 5.95644C234.174 83.8128 373.175 30.8483 472.641 81.2378C513.235 101.787 575.541 167.425 532.371 263.61C472.893 396.097 334.549 329.247 334.549 329.247L88.6099 201.304C88.6099 201.304 158.64 219.077 191.106 209.635C196.054 208.171 -100.831 95.0217 36.6047 122.59C252.553 165.86 67.1515 106.332 141.474 120.57C267.599 144.755 179.947 111.583 179.947 111.583C179.947 111.583 66.3436 74.674 83.258 74.1187C112.341 73.2098 242.303 85.5295 219.279 81.2378C120.167 62.5563 45.592 -23.0756 96.7894 5.95644Z" fill="url(#paint0_linear_6068_1461)"/>
<path d="M183.936 191.004C202.113 192.721 217.967 203.274 234.427 211.15C262.146 224.48 292.743 230.639 323.239 234.224C310.566 225.893 297.59 217.411 283.049 213.069C268.407 208.676 252.856 208.676 238.011 204.94C220.744 200.598 204.486 191.257 186.713 190.651L183.936 191.004Z" fill="#FFCE8D"/>
<path d="M155.358 45.5917C173.535 47.3084 189.389 57.8609 205.849 65.7374C233.568 79.0669 264.165 85.2268 294.662 88.8116C281.989 80.4807 269.013 71.9983 254.471 67.6561C239.829 63.2634 224.278 63.2634 209.434 59.5271C192.166 55.1849 175.908 45.8442 158.135 45.2383L155.358 45.5917Z" fill="#F15A24"/>
<path d="M214.584 160.003C230.185 178.129 262.045 165.557 288.906 161.972C334.246 155.964 367.116 176.21 394.683 204.637C369.388 214.533 343.688 224.429 325.158 219.279C306.577 214.078 296.126 193.882 278.757 186.359C258.46 177.574 228.822 186.006 215.694 164.8L214.533 160.003H214.584Z" fill="#FFCE8D"/>
<path d="M304.659 82.5508C320.261 100.677 352.12 88.1047 378.981 84.5199C424.322 78.5115 457.191 98.7582 484.759 127.184C459.463 137.081 433.763 146.977 415.233 141.827C396.653 136.626 386.201 116.43 368.833 108.907C350.909 101.131 325.613 106.837 310.92 93.5577C307.739 90.6798 305.618 86.7415 304.659 82.5508Z" fill="#FFCE8D"/>
<path d="M247.1 270.88C248.614 266.841 251.947 263.66 256.137 262.499C275.526 257.147 296.631 275.071 316.322 276.182C335.206 277.242 353.635 263.912 372.569 267.649C391.402 271.335 409.932 291.783 428.108 311.979C390.695 324.955 352.221 328.288 314.403 302.538C291.986 287.29 269.214 261.691 247.1 270.88Z" fill="#FFCE8D"/>
<path d="M263.862 107.14C298.246 111.987 335.104 112.896 363.884 132.334C347.02 132.637 330.055 132.284 313.596 128.649C303.245 126.376 293.197 122.842 282.897 120.318C264.67 115.824 245.13 114.208 229.276 104.161C240.94 109.26 254.118 110.724 266.639 108.351L263.862 107.14Z" fill="#FFCE8D"/>
<path d="M222.208 134.303C242 136.272 256.289 141.523 275.071 148.037C275.021 149.602 272.9 150.006 271.335 149.854C251.391 148.188 233.316 137.535 213.675 133.899L222.208 134.303Z" fill="#F15A24"/>
<path d="M61.3957 110.371C81.188 112.34 95.4768 117.591 114.259 124.104C114.209 125.669 112.088 126.073 110.523 125.922C90.5792 124.256 72.5036 113.602 52.8628 109.967L61.3957 110.371Z" fill="#F15A24"/>
<path d="M107.09 188.783C126.882 190.752 141.171 196.003 159.953 202.516C159.903 204.081 157.782 204.485 156.217 204.334C136.273 202.668 118.197 192.014 98.5566 188.379L107.09 188.783Z" fill="#F15A24"/>
<path d="M234.982 234.173C256.491 239.929 277.596 246.746 298.045 254.471C299.206 254.925 300.62 255.632 300.418 256.44C293.501 255.228 286.634 254.016 279.717 252.855C267.397 250.734 233.568 240.03 245.939 240.788C252.25 241.192 241.344 238.919 238.668 237.203C233.265 233.769 225.136 232.962 222.208 231.043L234.982 234.123V234.173Z" fill="#F15A24"/>
<path d="M379.638 103.504C363.127 111.027 347.526 108.957 320.513 145.563C307.285 163.487 303.447 173.232 302.286 189.389C301.226 203.879 288.452 214.987 306.123 247.301C311.072 256.389 313.192 276.434 326.421 283.452C337.327 289.259 342.881 307.284 364.945 314.353C382.819 320.058 408.821 330.409 444.114 321.27C462.846 316.423 494.049 298.65 506.722 284.058C517.78 271.284 531.008 233.618 531.665 216.704C532.473 197.114 518.891 162.931 508.792 146.169C500.108 131.779 472.237 110.017 456.737 103.504C449.769 100.576 434.066 102.09 426.745 100.273C416.546 97.6977 402.914 92.9011 379.688 103.504H379.638Z" fill="#281C16"/>
<path d="M412.961 322.734C393.724 322.734 378.426 317.685 366.106 313.696L361.865 312.333C347.475 307.738 339.75 298.65 333.54 291.379C330.056 287.29 327.077 283.806 323.694 281.988C313.242 276.434 309.254 264.367 306.022 254.622C304.811 250.987 303.649 247.503 302.387 245.18C288.856 220.339 292.794 207.111 295.975 196.457C296.985 193.074 297.944 189.843 298.196 186.662C299.408 169.798 303.548 159.751 316.676 141.978C338.134 112.895 352.928 107.897 365.955 103.504C369.337 102.343 372.518 101.282 375.699 99.8183C385.646 95.2741 394.785 93.103 403.671 93.103C411.093 93.103 417.101 94.6682 421.949 95.9305L424.019 96.4859C426.695 97.1423 431.289 97.3442 435.733 97.4957C442.397 97.6977 449.264 97.9501 453.758 99.8183C469.359 106.382 497.23 127.941 506.268 142.887C516.366 159.599 529.948 193.529 529.089 213.725C528.383 230.74 515.558 268.204 503.844 281.685C490.515 297.034 459.11 314.453 440.933 319.149C431.592 321.573 422.1 322.784 412.81 322.784L412.961 322.734Z" fill="#736357"/>
<path d="M403.772 96.9405C411.75 96.9405 417.96 98.8591 423.211 100.172C430.33 101.939 445.629 100.475 452.394 103.302C467.491 109.614 494.605 130.82 503.036 144.806C512.933 161.114 526.111 194.387 525.303 213.473C524.646 229.933 511.822 266.589 501.017 279.06C488.697 293.298 458.302 310.566 440.125 315.262C430.33 317.786 421.292 318.796 412.961 318.796C392.008 318.796 375.548 312.535 363.077 308.546C341.618 301.68 336.165 284.159 325.562 278.504C312.687 271.638 310.668 252.148 305.82 243.313C288.654 211.806 301.074 201.001 302.084 186.915C303.245 171.162 306.931 161.72 319.806 144.25C346.061 108.654 361.259 110.623 377.315 103.302C387.969 98.4552 396.552 96.89 403.671 96.89M403.772 89.1649C394.33 89.1649 384.636 91.4875 374.134 96.2336C371.105 97.5969 368.025 98.6572 364.743 99.768C351.161 104.363 335.761 109.563 313.545 139.655C300.065 157.933 295.571 168.839 294.309 186.359C294.107 189.136 293.248 192.014 292.238 195.296C289.007 206.051 284.614 220.794 298.954 247.049C300.065 249.068 301.175 252.35 302.337 255.834C305.618 265.629 310.112 279.11 321.927 285.371C324.653 286.835 327.38 290.067 330.611 293.854C336.771 301.124 345.254 311.02 360.704 315.968C362.067 316.423 363.481 316.877 364.894 317.332C376.76 321.219 393.068 326.571 412.961 326.571C422.605 326.571 432.4 325.309 442.094 322.785C460.776 317.938 493.191 300.013 506.975 284.109C519.092 270.073 532.422 231.346 533.179 213.725C534.038 192.721 520.153 157.832 509.752 140.716C500.209 124.912 471.884 102.949 455.424 96.0317C450.274 93.8606 443.054 93.6081 436.036 93.4062C431.794 93.2547 427.402 93.1032 425.13 92.5478L423.059 91.9924C418.01 90.6797 411.75 89.064 403.823 89.064L403.772 89.1649Z" fill="#281C16"/>
<path d="M478.7 163.083C456.333 166.163 460.422 198.326 464.26 208.171C466.431 213.725 474.004 220.137 482.386 220.137C490.767 220.137 505.763 211.908 503.541 192.115C501.32 172.323 486.274 162.023 478.7 163.083Z" fill="#281C16"/>
<path d="M406.195 168.031C372.973 168.031 369.741 204.788 379.991 216.805C384.232 221.753 393.27 227.913 404.327 227.913C415.385 227.913 431.592 220.844 431.895 200.042C432.198 179.24 416.243 168.031 406.195 168.031Z" fill="#281C16"/>
<path d="M478.852 166.264C457.848 169.193 461.685 199.537 465.27 208.878C467.289 214.129 474.409 220.137 482.336 220.137C489.909 220.137 504.299 212.362 502.229 193.68C500.209 175.756 485.971 165.254 478.902 166.264H478.852Z" fill="white"/>
<path d="M479.054 167.678C462.392 170.101 462.19 191.257 465.118 204.283C466.482 213.069 475.317 219.935 484.052 218.976C511.418 214.634 502.431 170.202 479.054 167.627V167.678ZM478.65 164.8C492.383 165.103 501.32 179.442 503.34 191.661C505.864 204.435 497.634 218.774 484.305 220.945C477.64 221.854 471.177 218.522 466.936 213.675C462.644 208.575 462.139 201.809 461.331 195.549C459.968 183.229 464.007 166.567 478.599 164.85L478.65 164.8Z" fill="#281C16"/>
<path d="M406.65 172.676C375.75 172.676 372.013 206.757 381.556 218.421C385.494 223.217 393.926 229.226 404.226 229.226C414.526 229.226 429.573 222.359 429.876 202.163C430.128 182.37 415.991 172.676 406.65 172.676Z" fill="white"/>
<path d="M406.65 174.039C373.73 173.08 366.813 223.217 400.894 227.812C435.228 232.104 438.459 177.826 406.65 174.039ZM406.65 171.313C441.993 175.554 437.904 234.174 400.591 230.134C362.572 225.388 370.246 170 406.65 171.313Z" fill="#281C16"/>
<path d="M361.108 125.821C346.263 123.398 326.926 143.594 325.764 154.197C325.108 160.357 325.613 166.214 330.157 166.214C340.053 166.214 343.234 163.386 357.826 149.451C367.116 140.564 370.297 127.336 361.108 125.821Z" fill="#534741"/>
<path d="M321.27 245.029C319.251 251.896 327.127 267.094 333.742 269.618C338.841 271.587 346.213 270.123 346.617 266.134C347.475 257.45 347.929 251.845 334.297 240.384C328.036 235.133 323.643 237.102 321.321 245.029H321.27Z" fill="#534741"/>
<path d="M379.991 291.683C381.102 296.378 390.796 302.74 395.542 302.033C399.228 301.478 403.065 298.196 401.954 295.671C399.531 290.269 397.966 286.785 386.1 284.614C380.647 283.604 378.729 286.23 379.991 291.683Z" fill="#534741"/>
<path d="M445.932 306.325C449.314 307.587 457.242 305.012 458.756 302.336C459.918 300.266 459.463 296.984 457.443 296.58C453.101 295.722 450.274 295.217 444.063 300.468C441.236 302.891 442.044 304.861 445.932 306.325Z" fill="#534741"/>
<path d="M408.468 119.257C410.74 122.085 418.768 124.004 421.494 122.489C423.564 121.328 424.877 118.298 423.362 116.884C420.081 113.905 417.96 111.987 409.932 113.249C406.246 113.805 405.943 115.976 408.518 119.207L408.468 119.257Z" fill="#534741"/>
<path d="M322.583 201.607C320.766 215.644 320.311 218.572 315.767 222.813C313.646 224.782 311.374 221.702 309.506 217.966C306.325 211.554 308.143 191.964 315.767 186.965C320.513 183.885 323.694 192.67 322.533 201.607H322.583Z" fill="#534741"/>
<path d="M476.024 217.613C483.664 217.613 489.858 208.91 489.858 198.174C489.858 187.438 483.664 178.735 476.024 178.735C468.383 178.735 462.189 187.438 462.189 198.174C462.189 208.91 468.383 217.613 476.024 217.613Z" fill="#281C16"/>
<path d="M412.507 226.55C421.681 226.55 429.118 217.553 429.118 206.455C429.118 195.356 421.681 186.359 412.507 186.359C403.333 186.359 395.896 195.356 395.896 206.455C395.896 217.553 403.333 226.55 412.507 226.55Z" fill="#281C16"/>
<path d="M478.448 190.348C480.651 190.348 482.437 188.562 482.437 186.359C482.437 184.156 480.651 182.371 478.448 182.371C476.245 182.371 474.459 184.156 474.459 186.359C474.459 188.562 476.245 190.348 478.448 190.348Z" fill="white"/>
<path d="M418.566 198.023C420.685 198.023 422.403 196.305 422.403 194.185C422.403 192.066 420.685 190.348 418.566 190.348C416.447 190.348 414.729 192.066 414.729 194.185C414.729 196.305 416.447 198.023 418.566 198.023Z" fill="white"/>
<path d="M405.741 246.746C405.741 238.718 449.163 269.769 476.478 236.748C481.022 231.245 472.439 278.807 440.63 278.807C415.233 278.807 405.69 259.166 405.69 246.746H405.741Z" fill="#281C16"/>
<path d="M402.459 246.746C403.772 230.084 446.84 268.861 474.913 235.941C475.267 235.537 475.822 234.779 476.781 234.628C477.589 234.426 478.498 235.082 478.7 235.486C479.659 237.506 479.154 237.91 479.104 239.627C476.63 252.754 470.318 265.528 459.665 274.112C437.853 291.278 402.409 275.071 402.409 246.796L402.459 246.746ZM409.023 246.746C408.972 261.64 421.393 274.818 436.237 276.283C458.453 280.625 474.61 256.238 476.024 237.455C476.024 237.607 476.781 238.112 477.286 237.96C478.043 237.809 477.892 237.556 477.488 238.112C459.009 261.388 432.501 255.582 407.761 248.614C407.508 248.614 407.256 248.715 407.761 248.563C408.215 248.563 409.124 247.251 409.023 246.796V246.746Z" fill="#281C16"/>
<path d="M405.741 139.151C380.95 141.726 372.316 162.78 375.699 164.648C380.092 167.021 389.382 155.863 410.942 152.682C425.028 150.612 413.82 138.292 405.741 139.151Z" fill="#281C16"/>
<path d="M465.673 133.445C488.697 136.172 491.726 151.067 489.454 152.379C486.475 154.146 480.114 145.866 465.421 143.493C455.828 141.928 460.22 132.738 465.724 133.395L465.673 133.445Z" fill="#281C16"/>
<path d="M457.494 269.668C456.989 268.204 456.03 266.588 454.616 264.872C450.122 259.318 432.855 260.075 427.452 264.417C424.423 266.841 423.362 269.012 423.564 272.294C427.806 274.566 432.956 275.98 439.166 275.98C446.437 275.98 452.546 273.455 457.444 269.668H457.494Z" fill="#C1272D"/>
<defs>
<linearGradient id="paint0_linear_6068_1461" x1="4.99764" y1="127.689" x2="541.964" y2="230.538" gradientUnits="userSpaceOnUse">
<stop offset="0.07" stop-color="#F15A24"/>
<stop offset="0.22" stop-color="#F47B2C"/>
<stop offset="0.47" stop-color="#FBB03B"/>
<stop offset="0.58" stop-color="#FBB13E"/>
<stop offset="0.67" stop-color="#FBB447"/>
<stop offset="0.74" stop-color="#FBBB57"/>
<stop offset="0.81" stop-color="#FBC36E"/>
<stop offset="0.88" stop-color="#FBCF8B"/>
<stop offset="0.94" stop-color="#FBDDAF"/>
<stop offset="0.96" stop-color="#FBE3BF"/>
</linearGradient>
</defs>
</svg>
