<svg width="64" height="65" viewBox="0 0 64 65" fill="none" xmlns="http://www.w3.org/2000/svg">
<path d="M43.115 21.1699H0V51.9249H24.3025L33.77 60.3649V51.9249H43.115V21.1699Z" fill="#968A72"/>
<path d="M24.7724 33.1124H6.3999V31.2749H24.7724V33.1124ZM24.7724 40.7674H6.3999V42.6049H24.7724V40.7674ZM18.9549 36.0224H6.3999V37.8599H18.9549V36.0224ZM27.8349 37.8599H21.4049V36.0224H27.8349V37.8599ZM36.7149 37.8599H30.2849V36.0224H36.7149V37.8599ZM33.3774 40.7674H26.3349V42.6049H33.3774V40.7674Z" fill="white"/>
<path d="M64 4.63501H20.21V35.8675H44.8925L54.5075 44.4425V35.8675H64V4.63501Z" fill="#BEAF87"/>
<path d="M36.96 20.1724H45.32V14.7399L41.3325 13.1899L41.3175 15.8899H36.9575V9.25492L41.3175 7.23242L50.04 11.2024V25.1674H42.905L43.4825 28.2099H39.17L36.96 20.1699V20.1724ZM39.5025 29.7449H43.79L44.095 32.1949H40.115L39.5025 29.7449Z" fill="white"/>
</svg>
