<svg width="64" height="64" viewBox="0 0 64 64" fill="none" xmlns="http://www.w3.org/2000/svg">
<path d="M64 44.7726L57.3175 37.5476L32 42.6376L6.6825 37.5476L0 44.7726C0 44.7726 5.7575 58.3751 31.8675 58.4651C31.9125 58.4651 31.955 58.4651 32 58.4651C32.045 58.4651 32.0875 58.4651 32.1325 58.4651C58.2425 58.3701 64 44.7701 64 44.7701V44.7726Z" fill="#B28B47"/>
<path d="M55.1776 19.7525C50.4376 9.21749 38.5851 8.42749 38.5851 8.42749H25.4176C25.4176 8.42749 13.5651 9.21749 8.82508 19.7525C6.54258 24.825 6.45508 41.875 6.45508 41.875C6.45508 41.875 13.3026 49.775 32.0026 49.775C50.7026 49.775 57.5501 41.875 57.5501 41.875C57.5501 41.875 57.4626 24.825 55.1801 19.7525H55.1776Z" fill="#B28B47"/>
<path d="M24.7573 49.3475V7.85003L27.0773 5.53003H36.9248L39.2448 7.85003V49.3475C39.2448 49.3475 35.6898 49.7775 32.0023 49.7775C28.3148 49.7775 24.7598 49.3475 24.7598 49.3475H24.7573Z" fill="#8D5C49"/>
<path d="M32 45.0376C38.1096 45.0376 43.0625 40.0847 43.0625 33.9751C43.0625 27.8654 38.1096 22.9126 32 22.9126C25.8903 22.9126 20.9375 27.8654 20.9375 33.9751C20.9375 40.0847 25.8903 45.0376 32 45.0376Z" fill="#42210B"/>
<path d="M32.0001 41.875C36.3631 41.875 39.9001 38.338 39.9001 33.9749C39.9001 29.6119 36.3631 26.075 32.0001 26.075C27.637 26.075 24.1001 29.6119 24.1001 33.9749C24.1001 38.338 27.637 41.875 32.0001 41.875Z" fill="#F5F3ED"/>
<path d="M31.9998 51.0949C12.9173 51.0949 5.75227 43.0799 5.45727 42.7399L5.13477 42.3699V39.2449L6.71477 37.5524L7.76727 41.3374C9.29227 42.7624 16.3798 48.4649 31.9973 48.4649C47.6148 48.4649 54.6923 42.7699 56.2273 41.3374L57.2798 37.5349L58.8598 39.2474V42.3724L58.5373 42.7424C58.2423 43.0849 51.0773 51.0974 31.9948 51.0974L31.9998 51.0949Z" fill="#42210B"/>
</svg>
