<svg width="96" height="96" viewBox="0 0 96 96" fill="none" xmlns="http://www.w3.org/2000/svg">
<path d="M5.25375 64.2712C6.26625 65.6362 7.31625 67.0912 8.40375 68.6437C10.2337 68.7337 12.0638 68.8387 13.89 68.9549C13.8 68.4749 29.625 79.8637 30.195 80.3662C30.7087 80.3699 49.02 83.5912 49.005 83.6624C54.3862 83.5312 59.745 83.4112 65.0662 83.3437C71.67 75.0337 84.105 58.3574 84.105 58.3574L90.7463 42.5099C90.7463 42.5099 80.8688 23.5537 81.0938 23.1524C81.0938 22.9049 80.6813 21.5662 80.1525 19.9274C76.455 19.5074 62.955 10.8674 62.955 10.8674L28.7212 20.0249L17.5613 46.1737C17.5613 46.1737 8.6925 57.6187 5.25 64.2712H5.25375Z" fill="#8D5C49"/>
<path d="M38.4149 48.9262L57.4987 51.0374L63.8099 48.1012L73.2674 47.8574L69.8737 32.8312L80.1524 19.9312L67.8074 32.8312L57.4312 32.2049L48.9937 43.5374L28.7212 20.0249C28.7212 20.0249 46.2674 44.6512 46.0687 44.6887C45.8699 44.7262 38.4112 48.9262 38.4112 48.9262H38.4149Z" fill="#AF715D"/>
<path d="M80.1525 19.9238L81.0938 23.1526L90.7463 42.5101L84.105 58.3576L65.0663 83.3438L62.2275 74.2463L73.2675 47.8576L69.8738 32.8276L80.1525 19.9238Z" fill="#42210B"/>
<path d="M30.1948 80.3662L34.4698 70.9688L47.1411 69.8438L60.8211 72.9338L65.0661 83.3438L49.0048 83.6625L30.1948 80.3662Z" fill="#42210B"/>
<path d="M8.40381 68.6438L13.8901 68.955L30.1951 80.3663L33.7951 69.3825L19.4813 55.665L17.3626 47.76L13.8076 62.3175L8.40381 68.6438Z" fill="#42210B"/>
<path d="M18.585 45.8212L28.7212 20.0249L47.3137 44.9699L25.2562 49.5412L18.585 45.8212Z" fill="#D69380"/>
<path d="M62.9549 10.8674L28.7212 20.0249L48.7874 44.6887L58.2787 32.0437L68.4149 32.4824L80.1524 19.9312L71.0924 19.8337L62.9549 10.8674Z" fill="#D69380"/>
<path d="M28.7212 20.025L48.7987 43.0725L58.7024 29.1337L58.8299 30.9337C58.8299 30.9337 67.9912 32.1562 68.2799 31.7587C68.5687 31.3612 80.1487 19.9275 80.1487 19.9275L68.1674 33.4425L58.1774 32.9437L48.7874 44.6887L28.7212 20.025Z" fill="#E2B7AF"/>
<path d="M69.8738 32.8274L73.2675 47.8574L62.2275 74.2461L75.27 49.1249L69.8738 32.8274Z" fill="#E2B7AF"/>
<path d="M34.4702 70.9688L47.1415 69.8438L60.8215 72.9338L44.8165 67.8225L34.4702 70.9688Z" fill="#E2B7AF"/>
<path d="M25.2563 49.5412L52.4926 50.475L38.4151 48.9262L47.3138 44.97L25.2563 49.5412Z" fill="#E2B7AF"/>
<path d="M17.3623 47.76L20.5273 54.9113L33.7948 69.3825L19.4811 55.665L17.3623 47.76Z" fill="#E2B7AF"/>
<path d="M31.6689 22.155C32.3364 22.2413 53.9139 25.9838 53.9139 25.9838L47.3139 29.2613L48.9152 31.7175L42.4164 30.2475L31.6727 22.155H31.6689Z" fill="#AF715D"/>
<path d="M33.7949 39.3076L42.1649 42.3901L41.4149 43.9726L33.7949 39.3076Z" fill="#AF715D"/>
<path d="M24.2476 43.9724L30.9151 33.8062L30.0788 38.8912L31.5788 38.1412L24.2476 43.9724Z" fill="#E2B7AF"/>
<path d="M18.5848 45.8213L25.2561 49.5413L54.7273 52.785C54.7273 52.785 48.9148 55.0988 49.7886 55.035C50.6623 54.9713 59.2873 53.535 59.2873 53.535L64.4735 48.9713L73.2635 47.8538L63.8061 48.0975L56.1598 51.6338L31.5748 49.5413L18.5811 45.8213H18.5848Z" fill="#42210B"/>
<path d="M39.5814 53.5387C39.7464 53.5387 44.9964 58.6837 44.9964 58.6837V66.8812L35.7451 68.7337L30.8701 59.8049L38.8726 53.8199L39.5776 53.5349L39.5814 53.5387Z" fill="#AF715D"/>
<path d="M46.0688 58.9012C46.0688 58.9012 56.9964 66.4349 57.3714 66.3599C57.7464 66.2849 67.9951 53.5124 67.9951 53.5124L67.4963 50.3662L71.9963 49.1699L62.2238 71.9549L46.0688 67.4324V58.9012Z" fill="#D69380"/>
<path d="M20.3735 63.135L26.7485 70.6425L16.6235 67.9088L20.1223 66.405L20.3735 63.135Z" fill="#8D5C49"/>
<path d="M48 76.755L59.0325 74.8425L61.6238 78.33L54.81 76.5863L48 76.755Z" fill="#D69380"/>
<path d="M78.4985 47.775L87.371 43.02L82.9348 57.5288L80.1523 49.3313L78.4985 47.775Z" fill="#8D5C49"/>
<path d="M71.9961 33.7499L85.2448 37.7962C85.2448 37.7962 89.6211 42.7349 89.2461 42.5099C88.8711 42.2849 80.6323 25.0349 80.6323 25.0349L80.1523 21.8887L78.9973 29.2574L71.9961 33.7462V33.7499Z" fill="#8D5C49"/>
</svg>
