<svg width="64" height="65" viewBox="0 0 64 65" fill="none" xmlns="http://www.w3.org/2000/svg">
<g clip-path="url(#clip0_4025_2948)">
<path d="M37.9426 -1.32739H26.0576V66.0251H37.9426V-1.32739Z" fill="#8D5C49"/>
<path d="M52.115 14.5199H9.4475L0 8.2724L9.295 2.0249H51.9625L52.115 14.5199Z" fill="#968A72"/>
<path d="M52.1149 39.51H7.92486L3.04736 34.785L7.77236 30.0625H51.9624L52.1149 39.51Z" fill="#968A72"/>
<path d="M14.02 28.5375H57.905L64 22.29L58.0575 16.0425H14.1725L14.02 28.5375Z" fill="#BEAF87"/>
<path d="M25.4473 66.3275L23.9248 60.8425L27.5798 64.5L29.1048 59.9275L31.8473 63.89L32.4573 62.3675L34.8948 64.5L37.3323 59.9275L38.2473 63.585L40.0748 61.4525L38.5523 66.3275H25.4473Z" fill="#8C9B2A"/>
</g>
<defs>
<clipPath id="clip0_4025_2948">
<rect width="64" height="64" fill="white" transform="translate(0 0.5)"/>
</clipPath>
</defs>
</svg>
