<svg width="64" height="64" viewBox="0 0 64 64" fill="none" xmlns="http://www.w3.org/2000/svg">
<path d="M2.40479 18.045C2.88479 17.805 18.2848 7.94001 18.2848 7.94001L27.1873 8.90251C27.1873 8.90251 34.6448 4.57251 35.3673 4.57251C36.0898 4.57251 48.8398 9.62501 49.3223 9.38501C49.8048 9.14501 55.8173 7.94251 55.8173 7.94251L61.5923 18.0475H2.40479V18.045Z" fill="#8C9B2A"/>
<path d="M61.2326 18.0449H2.76758L6.56758 45.9549H57.4326L61.2326 18.0449Z" fill="#BEAF87"/>
<path d="M60.8724 43.0674H3.12744V51.4874H60.8724V43.0674Z" fill="#42210B"/>
<path d="M64 14.1951H0V22.6151H64V14.1951Z" fill="#8D5C49"/>
<path d="M3.85014 40.1799H1.20264V51.4874H3.85014V40.1799Z" fill="#968A72"/>
<path d="M62.7974 40.1799H60.1499V51.4874H62.7974V40.1799Z" fill="#968A72"/>
<path d="M17.6852 59.4276C22.867 59.4276 27.0677 55.2269 27.0677 50.0451C27.0677 44.8633 22.867 40.6626 17.6852 40.6626C12.5034 40.6626 8.30273 44.8633 8.30273 50.0451C8.30273 55.2269 12.5034 59.4276 17.6852 59.4276Z" fill="#968A72"/>
<path d="M17.6849 53.4125C19.5447 53.4125 21.0524 51.9048 21.0524 50.045C21.0524 48.1852 19.5447 46.6775 17.6849 46.6775C15.8251 46.6775 14.3174 48.1852 14.3174 50.045C14.3174 51.9048 15.8251 53.4125 17.6849 53.4125Z" fill="#F5F3ED"/>
<path d="M46.3151 59.4276C51.4969 59.4276 55.6976 55.2269 55.6976 50.0451C55.6976 44.8633 51.4969 40.6626 46.3151 40.6626C41.1333 40.6626 36.9326 44.8633 36.9326 50.0451C36.9326 55.2269 41.1333 59.4276 46.3151 59.4276Z" fill="#968A72"/>
<path d="M46.3148 53.4125C48.1746 53.4125 49.6823 51.9048 49.6823 50.045C49.6823 48.1852 48.1746 46.6775 46.3148 46.6775C44.4549 46.6775 42.9473 48.1852 42.9473 50.045C42.9473 51.9048 44.4549 53.4125 46.3148 53.4125Z" fill="#F5F3ED"/>
<path d="M59.6701 34.165H4.3301L3.8501 31.52H60.1501L59.6701 34.165Z" fill="#8D5C49"/>
<path d="M3.8501 25.9976L32.0001 26.4651L3.9776 26.9326L3.8501 25.9976Z" fill="#968A72"/>
<path d="M38.0151 28.6325C39.2176 28.6325 59.8726 28.0425 59.8726 28.0425L59.7626 28.8575L38.0176 28.63L38.0151 28.6325Z" fill="#968A72"/>
<path d="M47.3975 37.2925C48.6 37.2925 58.6675 36.7175 58.6675 36.7175L58.5575 37.5325L47.3975 37.2925Z" fill="#968A72"/>
<path d="M22.8575 36.5725C21.655 36.5725 5.29248 36.4775 5.29248 36.4775L5.40248 37.2925L22.855 36.57L22.8575 36.5725Z" fill="#968A72"/>
<path d="M13.7152 38.4949C12.5127 38.4949 5.53516 38.3999 5.53516 38.3999L5.64516 39.2149L13.7152 38.4924V38.4949Z" fill="#968A72"/>
</svg>
