<svg width="64" height="65" viewBox="0 0 64 65" fill="none" xmlns="http://www.w3.org/2000/svg">
<path d="M17.6389 15.1394L14.5913 18.187L33.4923 37.088L36.5399 34.0403L17.6389 15.1394Z" fill="#8D5C49"/>
<path d="M42.0973 42.4651L35.8223 50.1726L48.0148 62.3651L60.9248 61.2901L42.0973 42.4651Z" fill="#BEAF87"/>
<path d="M42.0977 42.4649L49.8077 36.1899L62.0002 48.3799L60.9252 61.2899L42.0977 42.4649Z" fill="#C8BCAD"/>
<path d="M47.4774 42.4651L49.0024 49.5451L42.0974 47.8426L31.8799 37.6226L37.2574 32.2451L47.4774 42.4651Z" fill="#968A72"/>
<path d="M12.6675 2.63507L17.365 7.33257L17.81 14.9601L16.12 16.6501L16.015 16.7551L14.325 18.4451L6.6975 18.0001L2 13.3026C2.0075 12.4101 2.0125 11.8726 2.0175 10.9776L5.835 6.57507L5.8275 6.56757L5.885 6.51757L5.935 6.46007L5.9425 6.46757L10.345 2.65007C11.2375 2.64257 11.775 2.63757 12.67 2.63257L12.6675 2.63507ZM12.2675 6.71757C11.5975 6.66757 11.28 6.64257 10.61 6.59257L5.9575 11.2451L6.0825 12.9026L8.98 15.0376L14.4025 9.61507L12.2675 6.71757Z" fill="#C8BCAD"/>
</svg>
