<svg width="64" height="64" viewBox="0 0 64 64" fill="none" xmlns="http://www.w3.org/2000/svg">
<g clip-path="url(#clip0_4025_2885)">
<path d="M0.0976562 15.4876L21.1977 5.17261L28.9327 46.1976V52.2926L5.49016 58.8576L0.0976562 15.4876Z" fill="#C8BCAD"/>
<path d="M21.1973 5.17261L27.1723 7.23261L29.0498 14.1976L29.2848 7.86761L48.3923 14.5501L46.2823 55.8101L31.2773 52.5276L28.7673 45.3151L21.1973 5.17261Z" fill="#EAE4DC"/>
<path d="M64.0977 7.98511L48.3927 14.5501L46.2827 55.8101L59.4102 49.2451L64.0977 7.98511Z" fill="#C8BCAD"/>
<path d="M52.9176 46.5849L46.6201 43.8949L37.7176 43.1774L33.7701 22.5199L28.7801 23.0024L27.6401 27.7899L21.8951 29.1674L20.3926 41.9274L9.6501 37.9299L7.4601 41.0324L5.1626 39.4099L8.6001 34.5399L18.0176 38.0424L19.3301 26.8899L25.3051 25.4574L26.5101 20.3974L36.0526 19.4724L40.0776 40.5449L47.3026 41.1274L51.1326 42.7624L56.1201 26.2049L53.0751 25.4049L53.7901 22.6849L59.6526 24.2274L52.9176 46.5849Z" fill="#42210B"/>
<path d="M37.7749 19.2699L33.3949 18.4099L30.6899 20.6049L32.3624 23.6624L36.7424 24.5224L39.4499 22.3249L37.7749 19.2699Z" fill="#8D5C49"/>
<path d="M53.0352 41.2949L49.0127 43.2299L48.1602 46.6099L51.3327 48.0549L55.3552 46.1199L56.2052 42.7399L53.0352 41.2949Z" fill="#8D5C49"/>
<path d="M20.2773 36.7876L15.9948 38.0501L14.6123 41.2476L17.5098 43.1851L21.7898 41.9226L23.1748 38.7251L20.2773 36.7876Z" fill="#8D5C49"/>
<path d="M41.6476 40.0575L37.3251 38.9475L34.4976 40.985L35.9926 44.1325L40.3176 45.2425L43.1426 43.205L41.6476 40.0575Z" fill="#8D5C49"/>
<path d="M58.8198 22.2224L56.8623 18.9499L52.6373 22.3474L49.3298 18.5349L46.6323 21.2324L50.4423 24.1099L46.5573 27.2324L46.2148 28.5974L52.3048 25.5174L57.1823 29.2024H58.5898L54.4498 24.4324L58.8198 22.2224Z" fill="#C10000"/>
<path d="M9.12506 23.3425C9.12506 23.18 9.77756 20.085 9.77756 20.085L10.7551 19.4325V15.5225L14.6651 13.73L15.9676 17.315L17.2701 17.8025L18.7351 19.7575L9.12256 23.3425H9.12506Z" fill="#8D5C49"/>
<path d="M10.7524 15.5225L11.8924 18.29L12.3824 17.3125L12.8699 16.9875V15.5225H13.5224L14.3374 16.6625L14.4999 16.1725L14.1749 14.545L14.6624 13.73L12.7074 14.2175L10.9149 14.87L10.7524 15.5225Z" fill="#42210B"/>
<path d="M9.125 23.3425L11.08 21.875L14.5 21.06L16.2925 19.595L17.4325 19.7575H18.735L18.5725 20.245L14.6625 21.875L13.035 22.2L9.125 23.3425Z" fill="#8C9B2A"/>
<path d="M12.2377 24.7474C12.1927 24.6699 11.0277 23.4424 11.0277 23.4424L10.3977 23.475L9.3027 21.6375L7.0077 22.145L7.4127 24.28L6.9502 24.9599L6.8252 26.385L12.2402 24.75L12.2377 24.7474Z" fill="#8D5C49"/>
<path d="M9.30232 21.635L9.55482 23.33L9.05732 23.04L8.73982 23.055L8.32982 22.3675L8.03232 22.5925L7.97732 23.41L7.76482 23.235L7.45982 22.3575L7.00732 22.145L8.03982 21.6975L9.04482 21.385L9.30232 21.635Z" fill="#42210B"/>
<path d="M12.2377 24.7476L10.9302 24.7351L9.1327 25.5326L7.9002 25.4626L7.4227 25.9326L6.8252 26.3826L7.0352 26.5551L9.2852 25.9726L10.1252 25.5626L12.2377 24.7476Z" fill="#8C9B2A"/>
<path d="M50.22 39.72C50.2075 39.5575 49.5025 36.505 49.5025 36.505L48.725 35.9075L48.45 32.0075L45.395 30.4275L44.6725 34.0725L43.73 34.63L42.77 36.6575L50.22 39.725V39.72Z" fill="#8D5C49"/>
<path d="M48.4475 32.0051L47.79 34.8275L47.355 33.8801L46.965 33.5801L46.8625 32.1175L46.375 32.1525L45.845 33.3326L45.6875 32.855L45.8175 31.2125L45.395 30.425L46.8925 30.81L48.28 31.365L48.4475 32.0051Z" fill="#42210B"/>
<path d="M50.2201 39.7201L48.6526 38.3601L46.0326 37.73L44.5876 36.3625L43.7451 36.585L42.7676 36.6525L42.9251 37.1325L45.9676 38.55L47.2101 38.7901L50.2201 39.7201Z" fill="#8C9B2A"/>
<path d="M8.1875 51.7076L9.5325 51.2976" stroke="#8D5C49" stroke-width="6.56" stroke-miterlimit="10"/>
<path d="M12.23 50.4776L16.275 49.2451" stroke="#8D5C49" stroke-width="6.56" stroke-miterlimit="10" stroke-dasharray="11.28 11.28"/>
<path d="M17.625 48.835L18.97 48.425" stroke="#8D5C49" stroke-width="6.56" stroke-miterlimit="10"/>
<path d="M9.125 54.5201L26.59 49.2451" stroke="#8D5C49" stroke-width="6.56" stroke-miterlimit="10" stroke-dasharray="12.19 12.19"/>
</g>
<defs>
<clipPath id="clip0_4025_2885">
<rect width="64" height="64" fill="white"/>
</clipPath>
</defs>
</svg>
