<svg width="29" height="28" viewBox="0 0 29 28" fill="none" xmlns="http://www.w3.org/2000/svg">
<path d="M2 22.625C2 20.9674 2.65848 19.3777 3.83058 18.2056C5.00268 17.0335 6.5924 16.375 8.25 16.375H20.75C22.4076 16.375 23.9973 17.0335 25.1694 18.2056C26.3415 19.3777 27 20.9674 27 22.625C27 23.4538 26.6708 24.2487 26.0847 24.8347C25.4987 25.4208 24.7038 25.75 23.875 25.75H5.125C4.2962 25.75 3.50134 25.4208 2.91529 24.8347C2.32924 24.2487 2 23.4538 2 22.625Z" stroke="#8D5C49" stroke-width="3" stroke-linejoin="round"/>
<path d="M14.5 11.375C17.0888 11.375 19.1875 9.27633 19.1875 6.6875C19.1875 4.09867 17.0888 2 14.5 2C11.9112 2 9.8125 4.09867 9.8125 6.6875C9.8125 9.27633 11.9112 11.375 14.5 11.375Z" stroke="#8D5C49" stroke-width="3"/>
</svg>
